<svg width="97" height="28" viewBox="0 0 97 28" fill="none" xmlns="http://www.w3.org/2000/svg">
<path d="M33.2125 4.74365C33.2226 6.83765 33.2327 8.93164 33.2431 11.0891C33.4354 11.0078 33.6277 10.9264 33.8258 10.8427C35.3081 10.2799 36.968 10.2964 38.4196 10.9467C38.9248 11.1807 39.3526 11.4953 39.7446 11.89C39.7732 11.9183 39.8017 11.9467 39.8312 11.9759C40.0752 12.2297 40.2643 12.5155 40.4499 12.8141C40.4678 12.8425 40.4678 12.8425 40.486 12.8716C41.1416 13.9287 41.4313 15.2846 41.4375 16.5184C41.4377 16.5473 41.4379 16.5762 41.4381 16.6059C41.4387 16.6986 41.4389 16.7913 41.4389 16.8839C41.4389 16.9156 41.439 16.9473 41.439 16.98C41.4385 17.456 41.4256 17.92 41.3393 18.3894C41.334 18.4189 41.3287 18.4484 41.3233 18.4788C41.1569 19.3852 40.8308 20.2544 40.2966 21.0077C40.2846 21.0248 40.2727 21.0419 40.2604 21.0596C40.0871 21.3072 39.8905 21.5282 39.6832 21.747C39.6642 21.768 39.6452 21.7891 39.6256 21.8108C38.6344 22.8733 37.0381 23.3591 35.6287 23.4129C33.8418 23.466 32.0477 23.2257 30.3298 22.7327C30.3298 16.9488 30.3298 11.1649 30.3298 5.2057C30.7103 5.1329 31.09 5.06052 31.4719 4.99633C31.5158 4.98891 31.5598 4.98149 31.6037 4.97407C31.6942 4.9588 31.7848 4.9436 31.8753 4.92843C31.9909 4.90906 32.1064 4.88946 32.2218 4.8698C32.3119 4.85452 32.402 4.83939 32.4921 4.8243C32.5347 4.81714 32.5773 4.80992 32.62 4.80264C32.6792 4.79253 32.7385 4.78266 32.7979 4.7728C32.8314 4.76715 32.8649 4.76151 32.8995 4.75569C32.9978 4.74365 32.9978 4.74365 33.2125 4.74365ZM33.3351 13.5225C33.3133 13.5331 33.2914 13.5437 33.2689 13.5545C33.1762 13.6538 33.196 13.7651 33.1977 13.8962C33.1976 13.9253 33.1975 13.9545 33.1974 13.9845C33.1972 14.0825 33.1979 14.1806 33.1986 14.2786C33.1986 14.3487 33.1986 14.4188 33.1985 14.489C33.1985 14.6797 33.1992 14.8704 33.2 15.0611C33.2008 15.2603 33.2009 15.4595 33.201 15.6587C33.2014 15.9931 33.2021 16.3276 33.2032 16.662C33.2044 17.0065 33.2052 17.351 33.2057 17.6955C33.2058 17.7167 33.2058 17.7379 33.2058 17.7598C33.206 17.8663 33.2062 17.9728 33.2063 18.0793C33.2076 18.963 33.2097 19.8467 33.2125 20.7305C33.3332 20.7505 33.454 20.7704 33.5747 20.7901C33.6085 20.7958 33.6422 20.8014 33.677 20.8072C34.8275 20.9946 36.0627 21.0238 37.0612 20.3435C37.1077 20.3088 37.1537 20.2735 37.1992 20.2376C37.2201 20.2213 37.241 20.205 37.2626 20.1881C37.4404 20.041 37.5804 19.8659 37.7205 19.6831C37.7392 19.6594 37.7579 19.6357 37.7771 19.6113C38.5331 18.5983 38.6093 17.0943 38.4527 15.8828C38.3213 14.9809 38.0249 14.0661 37.3098 13.4603C36.1679 12.6098 34.4979 12.8473 33.3351 13.5225Z" fill="#FDFDFD"/>
<path d="M81.4364 10.4019C81.4606 10.4019 81.4847 10.402 81.5096 10.402C81.905 10.4033 82.2897 10.4261 82.6784 10.5039C82.7135 10.5108 82.7135 10.5108 82.7493 10.5179C83.5828 10.6877 84.3327 11.0225 84.9785 11.582C85.0149 11.6125 85.0149 11.6125 85.0521 11.6436C86.2392 12.6683 86.6576 14.2962 86.7878 15.802C86.8262 16.3233 86.8295 16.8453 86.8051 17.3672C86.8039 17.3932 86.8027 17.4191 86.8014 17.4459C86.7995 17.4825 86.7995 17.4825 86.7975 17.5199C86.7964 17.5414 86.7953 17.5628 86.7941 17.585C86.787 17.6588 86.7716 17.7315 86.7572 17.8042C84.0854 17.8042 81.4137 17.8042 78.6611 17.8042C78.7341 18.2933 78.8071 18.7501 79.0291 19.1904C79.0419 19.2168 79.0547 19.2432 79.0679 19.2704C79.411 19.9437 80.0118 20.4058 80.7176 20.6438C80.8185 20.6756 80.9201 20.7036 81.0224 20.7305C81.0557 20.7397 81.0889 20.7488 81.1232 20.7582C82.5759 21.1029 84.2461 20.8038 85.6225 20.2993C85.6833 20.5233 85.72 20.7498 85.7569 20.9789C85.7637 21.0207 85.7705 21.0626 85.7773 21.1045C85.7914 21.1919 85.8055 21.2793 85.8195 21.3667C85.8373 21.4782 85.8555 21.5896 85.8737 21.701C85.8878 21.7873 85.9017 21.8737 85.9155 21.9601C85.9253 22.021 85.9353 22.0819 85.9453 22.1427C85.9753 22.3315 85.9986 22.5107 85.9905 22.7019C84.076 23.5787 81.3528 23.729 79.3779 23.0138C78.598 22.7181 77.8627 22.2947 77.281 21.6854C77.281 21.6651 77.281 21.6448 77.281 21.6238C77.2608 21.6238 77.2406 21.6238 77.2197 21.6238C77.1197 21.5178 77.0323 21.4006 76.9437 21.285C76.9312 21.2687 76.9186 21.2523 76.9057 21.2355C76.3325 20.4801 76.0059 19.6048 75.8167 18.6802C75.8106 18.6508 75.8045 18.6213 75.7982 18.591C75.6937 18.0527 75.6749 17.5158 75.6768 16.9687C75.6768 16.9354 75.6769 16.9022 75.6769 16.8679C75.6783 16.3836 75.689 15.9096 75.7783 15.4324C75.7836 15.403 75.7889 15.3737 75.7943 15.3434C76.0206 14.1101 76.5565 12.9443 77.4344 12.0441C77.4573 12.0195 77.4801 11.995 77.5037 11.9697C78.2719 11.1625 79.3829 10.6512 80.4704 10.4731C80.5004 10.4679 80.5304 10.4626 80.5612 10.4572C80.8544 10.4099 81.1404 10.4005 81.4364 10.4019ZM79.7651 13.3994C79.7483 13.4117 79.7316 13.4241 79.7144 13.4368C79.3626 13.7104 79.146 14.1087 78.9677 14.5083C78.9555 14.534 78.9434 14.5598 78.9308 14.5863C78.781 14.9254 78.7066 15.3131 78.6611 15.6788C80.4017 15.6788 82.1424 15.6788 83.9358 15.6788C83.9358 14.92 83.7389 14.1105 83.2004 13.5505C83.1598 13.5099 83.1185 13.47 83.0771 13.4302C83.0556 13.4091 83.0341 13.3879 83.0119 13.3662C82.5548 12.9403 81.9411 12.7952 81.3298 12.8084C80.7431 12.8449 80.2223 13.0223 79.7651 13.3994Z" fill="#FDFDFD"/>
<path d="M55.3353 10.4057C55.4245 10.4056 55.5137 10.405 55.6029 10.4045C56.1036 10.4029 56.5936 10.4397 57.0848 10.5404C57.117 10.547 57.1492 10.5535 57.1823 10.5603C57.6751 10.6662 58.1342 10.843 58.5741 11.0891C58.6046 11.1061 58.6351 11.1231 58.6665 11.1407C58.898 11.2797 59.0864 11.4565 59.2795 11.6435C59.2997 11.6619 59.3199 11.6802 59.3407 11.6991C59.9844 12.2994 60.2653 13.2633 60.3835 14.1078C60.3886 14.1438 60.3937 14.1799 60.399 14.2171C60.454 14.636 60.4531 15.0525 60.4518 15.4745C60.4518 15.555 60.4518 15.6355 60.4518 15.716C60.4518 15.8882 60.4516 16.0604 60.4513 16.2326C60.4508 16.4815 60.4506 16.7304 60.4506 16.9794C60.4504 17.3835 60.45 17.7875 60.4494 18.1916C60.4489 18.5837 60.4484 18.9758 60.4482 19.368C60.4482 19.3922 60.4481 19.4164 60.4481 19.4414C60.448 19.563 60.448 19.6846 60.4479 19.8062C60.4473 20.8125 60.4462 21.8188 60.4448 22.825C60.3187 22.8495 60.1926 22.874 60.0665 22.8984C60.0312 22.9053 59.9959 22.9121 59.9595 22.9192C59.6441 22.9803 59.3281 23.0368 59.0111 23.0888C58.9836 23.0933 58.956 23.0978 58.9276 23.1025C58.5202 23.169 58.1125 23.2247 57.702 23.2678C57.679 23.2703 57.656 23.2727 57.6324 23.2752C57.0144 23.34 56.3973 23.3551 55.7763 23.3561C55.6597 23.3564 55.5432 23.3573 55.4267 23.3583C54.1202 23.3639 52.7162 23.1938 51.674 22.3322C51.6486 22.3113 51.6232 22.2905 51.597 22.269C51.4739 22.1648 51.4739 22.1648 51.4287 22.1166C51.4287 22.0962 51.4287 22.0759 51.4287 22.0549C51.4084 22.0549 51.3882 22.0549 51.3673 22.0549C50.5711 21.1297 50.4047 19.9761 50.4842 18.7897C50.5002 18.6324 50.5294 18.4805 50.57 18.3278C50.5789 18.294 50.5789 18.294 50.588 18.2595C50.735 17.7239 50.9921 17.2852 51.3673 16.88C51.3923 16.8525 51.4172 16.8249 51.4429 16.7965C51.6322 16.5962 51.843 16.4435 52.0727 16.2948C52.0968 16.2784 52.1209 16.262 52.1458 16.2451C53.1275 15.6077 54.421 15.4871 55.5592 15.4862C55.5838 15.4862 55.6085 15.4861 55.634 15.4861C56.3343 15.4871 57.0043 15.5732 57.6848 15.7403C57.6551 14.5382 57.6551 14.5382 57.0753 13.5244C57.0538 13.5035 57.0322 13.4825 57.0101 13.4609C57.0101 13.4406 57.0101 13.4202 57.0101 13.3993C56.9922 13.3909 56.9744 13.3824 56.9559 13.3738C56.8889 13.3385 56.8331 13.2983 56.7724 13.253C55.7872 12.5938 54.1985 12.8328 53.1116 13.0425C52.8251 13.1009 52.5416 13.1721 52.2586 13.2459C52.2251 13.2546 52.1916 13.2633 52.157 13.2722C52.129 13.2798 52.101 13.2873 52.0722 13.2951C52.0521 13.299 52.032 13.3029 52.0114 13.3069C51.9532 13.2484 51.9581 13.1488 51.9462 13.0705C51.9413 13.0382 51.9413 13.0382 51.9363 13.0053C51.9253 12.934 51.9146 12.8626 51.9039 12.7912C51.8964 12.7417 51.8889 12.6922 51.8813 12.6428C51.8656 12.539 51.8499 12.4351 51.8343 12.3313C51.8142 12.1981 51.794 12.0649 51.7737 11.9317C51.7582 11.8295 51.7427 11.7273 51.7272 11.6251C51.7198 11.576 51.7124 11.5269 51.7049 11.4778C51.6945 11.4092 51.6841 11.3405 51.6738 11.2718C51.6679 11.2327 51.662 11.1936 51.656 11.1534C51.6434 11.0582 51.6434 11.0582 51.6434 10.9658C52.8494 10.6013 54.0762 10.4056 55.3353 10.4057ZM53.7377 18.2206C53.3879 18.6006 53.3401 18.9924 53.352 19.49C53.3695 19.9062 53.5143 20.2885 53.8207 20.5764C54.3659 21.0227 55.1176 21.0759 55.7911 21.075C55.8129 21.075 55.8348 21.075 55.8573 21.075C56.1835 21.0746 56.5082 21.0639 56.8338 21.0423C56.8703 21.0399 56.9069 21.0375 56.9446 21.035C57.3397 21.0353 57.3397 21.0353 57.6848 20.9152C57.6877 20.8177 57.6886 20.7209 57.6883 20.6233C57.6883 20.5773 57.6883 20.5773 57.6883 20.5304C57.6882 20.4286 57.688 20.3268 57.6878 20.2249C57.6877 20.1545 57.6877 20.0841 57.6876 20.0137C57.6875 19.828 57.6872 19.6423 57.6869 19.4566C57.6866 19.2673 57.6864 19.078 57.6863 18.8887C57.6859 18.5169 57.6854 18.1451 57.6848 17.7733C57.5971 17.7535 57.5093 17.7337 57.4216 17.714C57.397 17.7084 57.3724 17.7029 57.347 17.6971C56.2493 17.4508 54.6178 17.3815 53.7377 18.2206Z" fill="#FDFDFD"/>
<path d="M62.5915 10.7195C62.9997 10.7124 63.4078 10.7069 63.8159 10.7036C64.0055 10.702 64.195 10.6998 64.3845 10.6963C64.5674 10.6929 64.7503 10.6911 64.9333 10.6903C65.0031 10.6897 65.0728 10.6886 65.1426 10.687C65.6895 10.6744 65.6895 10.6744 65.8386 10.7851C65.8949 10.8647 65.9298 10.9369 65.9649 11.0276C65.9953 11.0759 66.0266 11.1238 66.0591 11.1707C66.0904 11.2192 66.1216 11.2678 66.1527 11.3163C66.1876 11.3704 66.2224 11.4244 66.2572 11.4784C66.2748 11.5057 66.2924 11.5331 66.3105 11.5612C66.3957 11.6935 66.4812 11.8254 66.5668 11.9574C66.7021 12.1665 66.8371 12.3758 66.9719 12.5852C67.0807 12.7541 67.1898 12.9227 67.2989 13.0914C67.4218 13.2812 67.5445 13.4711 67.6669 13.6612C67.6941 13.7034 67.7213 13.7456 67.7485 13.7878C67.8128 13.8875 67.8769 13.9873 67.9409 14.0872C67.9767 14.1428 68.0125 14.1985 68.0484 14.2542C68.065 14.2802 68.0817 14.3063 68.0989 14.3332C68.1796 14.4584 68.261 14.5789 68.3569 14.6931C68.3669 14.6777 68.3769 14.6622 68.3872 14.6463C68.4176 14.5994 68.448 14.5524 68.4784 14.5054C68.5142 14.4501 68.55 14.3948 68.5857 14.3396C68.6768 14.1988 68.7679 14.0581 68.859 13.9174C69.0276 13.657 69.196 13.3964 69.3639 13.1355C69.4897 12.9402 69.6159 12.7453 69.7421 12.5503C69.8467 12.3888 69.951 12.2271 70.0551 12.0652C70.1908 11.8545 70.327 11.644 70.4634 11.4338C70.482 11.4051 70.5005 11.3764 70.5197 11.3469C70.5556 11.2916 70.5921 11.2367 70.6293 11.1823C70.6898 11.0913 70.6898 11.0913 70.7281 10.9927C70.7843 10.875 70.8331 10.804 70.933 10.7195C71.1516 10.6506 71.3952 10.6767 71.6211 10.6834C71.6888 10.6841 71.7565 10.6846 71.8242 10.685C72.0019 10.6864 72.1796 10.69 72.3572 10.6941C72.5387 10.6979 72.7203 10.6996 72.9018 10.7015C73.2576 10.7054 73.6133 10.7117 73.969 10.7195C73.7434 11.0778 73.7434 11.0778 73.6411 11.2248C73.6219 11.2525 73.6027 11.2802 73.5829 11.3087C73.5629 11.3373 73.543 11.3658 73.5224 11.3953C73.5012 11.4259 73.4799 11.4565 73.4579 11.488C73.3933 11.581 73.3285 11.6739 73.2637 11.7668C73.2263 11.8206 73.1888 11.8743 73.1514 11.9281C73.0091 12.1324 72.8666 12.3367 72.724 12.5409C72.5605 12.7751 72.3973 13.0094 72.2363 13.2454C72.0209 13.5611 71.8016 13.8741 71.5828 14.1874C71.3872 14.4675 71.1921 14.7478 70.9996 15.0301C70.872 15.2168 70.7427 15.4023 70.6132 15.5877C70.3918 15.9049 70.1717 16.2231 69.9516 16.5413C70.0355 16.6972 70.1284 16.8308 70.2411 16.9668C70.4006 17.163 70.5496 17.3652 70.6961 17.5713C70.7949 17.7101 70.8956 17.8468 71.0001 17.9814C71.1284 18.1474 71.2508 18.3168 71.3717 18.4883C71.4472 18.5954 71.5239 18.7017 71.6007 18.8079C71.7601 19.0284 71.9167 19.2505 72.0695 19.4757C72.1551 19.6016 72.2428 19.7256 72.3322 19.8488C72.574 20.1849 72.7945 20.5362 73.0183 20.8845C73.0444 20.9249 73.0444 20.9249 73.0709 20.9661C74.0962 22.5614 74.0962 22.5614 74.2757 23.1024C73.2434 23.1024 72.2112 23.1024 71.1477 23.1024C70.9199 22.6754 70.9199 22.6754 70.6876 22.2399C70.6002 22.0895 70.5129 21.9408 70.4212 21.7932C70.3991 21.7573 70.377 21.7213 70.355 21.6852C70.3117 21.6147 70.2684 21.5442 70.2251 21.4737C70.1577 21.3634 70.0923 21.252 70.027 21.1405C69.8036 20.7593 69.5578 20.3935 69.3115 20.027C69.2473 19.9312 69.1836 19.835 69.12 19.7388C69.0122 19.5762 68.902 19.4156 68.7901 19.2558C68.7719 19.2297 68.7536 19.2035 68.7348 19.1766C68.5794 18.9544 68.4227 18.7332 68.2649 18.5127C68.1418 18.6257 68.0505 18.7581 67.9544 18.8939C67.9367 18.9188 67.9189 18.9438 67.9006 18.9695C67.8647 19.02 67.8288 19.0705 67.793 19.121C67.7516 19.1792 67.7098 19.237 67.6677 19.2946C67.0077 20.2034 66.4425 21.1826 65.8825 22.1552C65.8558 22.2015 65.8558 22.2015 65.8285 22.2489C65.6662 22.5316 65.5095 22.8169 65.3516 23.1024C64.38 23.1024 63.4085 23.1024 62.4075 23.1024C62.4598 22.9448 62.5171 22.8125 62.5935 22.6673C62.6066 22.6423 62.6197 22.6173 62.6332 22.5916C62.8382 22.2083 63.069 21.8396 63.2969 21.4698C63.3184 21.4348 63.3399 21.3999 63.3614 21.3649C63.5699 21.0266 63.7801 20.6903 64.0022 20.3609C64.0343 20.3125 64.0663 20.2642 64.0983 20.2158C64.7931 19.1647 65.5224 18.1401 66.2754 17.1304C66.3043 17.0917 66.3043 17.0917 66.3337 17.0522C66.3519 17.0279 66.37 17.0036 66.3887 16.9786C66.4056 16.9559 66.4224 16.9332 66.4398 16.9099C66.4787 16.8591 66.5204 16.8105 66.5627 16.7625C66.6158 16.701 66.6158 16.701 66.6025 16.6387C66.5729 16.5573 66.5318 16.4964 66.4819 16.4257C66.462 16.3971 66.442 16.3686 66.4214 16.3391C66.3998 16.3086 66.3782 16.2782 66.3559 16.2468C66.3108 16.1824 66.2657 16.118 66.2207 16.0536C66.1981 16.0215 66.1756 15.9894 66.1524 15.9563C66.0613 15.8261 65.9718 15.6948 65.8825 15.5633C65.8664 15.5396 65.8502 15.5159 65.8336 15.4914C65.7694 15.3969 65.7052 15.3023 65.641 15.2078C65.423 14.8868 65.2033 14.5672 64.9821 14.2484C64.8019 13.9885 64.6237 13.7273 64.4459 13.4656C64.2185 13.1312 63.9887 12.7984 63.7582 12.4661C63.6131 12.2567 63.4692 12.0465 63.3262 11.8356C63.2329 11.6982 63.1387 11.5616 63.0436 11.4255C63.0214 11.3936 62.9992 11.3617 62.9763 11.3288C62.9329 11.2667 62.8894 11.2047 62.8458 11.1427C62.826 11.1144 62.8062 11.086 62.7858 11.0568C62.7595 11.0193 62.7595 11.0193 62.7327 10.9811C62.6787 10.8967 62.6356 10.8095 62.5915 10.7195Z" fill="#FDFDFD"/>
<path d="M47.1967 4.7437C47.1967 4.77469 47.1967 4.80568 47.1968 4.83761C47.1981 6.20395 47.1995 7.57028 47.2016 8.93662C47.2016 8.95732 47.2016 8.97802 47.2016 8.99934C47.2023 9.44919 47.203 9.89903 47.2037 10.3489C47.204 10.5695 47.2044 10.7901 47.2047 11.0107C47.2048 11.0327 47.2048 11.0546 47.2048 11.0772C47.2059 11.7884 47.2067 12.4995 47.2074 13.2106C47.208 13.9416 47.209 14.6726 47.2103 15.4036C47.2112 15.8745 47.2118 16.3454 47.212 16.8163C47.2122 17.1251 47.2126 17.4338 47.2134 17.7426C47.2138 17.9207 47.2141 18.0988 47.214 18.2769C47.2139 18.4401 47.2142 18.6034 47.2149 18.7666C47.215 18.8255 47.215 18.8843 47.2149 18.9432C47.2136 19.4629 47.2473 19.9908 47.5986 20.4065C47.9904 20.7778 48.5529 20.8637 49.0674 20.9461C49.0045 21.4098 48.9308 21.8712 48.8522 22.3325C48.8332 22.4437 48.8145 22.5548 48.7957 22.666C48.7836 22.737 48.7716 22.8081 48.7595 22.8791C48.7539 22.9122 48.7483 22.9452 48.7426 22.9793C48.7373 23.0099 48.7321 23.0404 48.7267 23.072C48.7222 23.0987 48.7176 23.1255 48.7129 23.1531C48.7006 23.2192 48.6857 23.2838 48.6687 23.3488C47.5376 23.3774 46.2635 23.1729 45.3567 22.4555C45.3353 22.4391 45.3139 22.4227 45.2918 22.4059C44.6859 21.9131 44.4334 21.1127 44.3446 20.3609C44.3421 20.3404 44.3396 20.3199 44.337 20.2988C44.3054 20.0059 44.3098 19.713 44.3103 19.4188C44.3103 19.3574 44.3102 19.296 44.3102 19.2346C44.3101 19.0664 44.3103 18.8982 44.3104 18.7301C44.3105 18.5485 44.3105 18.367 44.3105 18.1854C44.3105 17.871 44.3106 17.5567 44.3107 17.2423C44.3109 16.9127 44.311 16.5831 44.3111 16.2535C44.3111 16.233 44.3111 16.2124 44.3111 16.1913C44.3111 16.0871 44.3111 15.9829 44.3111 15.8787C44.3112 15.1412 44.3114 14.4037 44.3117 13.6663C44.3119 12.95 44.3122 12.2336 44.3123 11.5173C44.3123 11.4952 44.3123 11.4731 44.3123 11.4504C44.3123 11.2285 44.3124 11.0067 44.3124 10.7848C44.3125 10.3329 44.3126 9.88094 44.3127 9.42901C44.3127 9.40823 44.3127 9.38745 44.3127 9.36605C44.313 7.97928 44.3135 6.59251 44.314 5.20574C44.416 5.18611 44.518 5.16653 44.62 5.14695C44.6486 5.14145 44.6772 5.13596 44.7066 5.13029C44.9559 5.08248 45.2057 5.03845 45.4561 4.99638C45.5 4.98896 45.544 4.98154 45.5879 4.97412C45.6784 4.95885 45.769 4.94364 45.8595 4.92847C45.9751 4.9091 46.0906 4.8895 46.206 4.86985C46.2961 4.85456 46.3862 4.83943 46.4763 4.82435C46.5189 4.81718 46.5615 4.80996 46.6042 4.80268C46.6634 4.79257 46.7227 4.7827 46.7821 4.77284C46.8156 4.7672 46.8491 4.76155 46.8837 4.75573C46.9889 4.74285 47.0908 4.74291 47.1967 4.7437Z" fill="#FDFDFD"/>
<path d="M92.6146 4.74365C92.6146 4.78932 92.6146 4.78932 92.6147 4.83591C92.6165 6.17844 92.6185 7.52096 92.6208 8.86349C92.6208 8.88383 92.6208 8.90417 92.6209 8.92513C92.6216 9.36725 92.6224 9.80938 92.6232 10.2515C92.6236 10.4683 92.6239 10.6852 92.6243 10.902C92.6244 10.9236 92.6244 10.9452 92.6244 10.9674C92.6257 11.6661 92.6267 12.3649 92.6276 13.0636C92.6286 13.8023 92.6298 14.5411 92.6312 15.2798C92.6321 15.7221 92.6328 16.1645 92.6332 16.6068C92.6335 16.9103 92.6341 17.2137 92.6348 17.5172C92.6352 17.6922 92.6355 17.8672 92.6356 18.0421C92.6356 18.2026 92.6359 18.3631 92.6365 18.5235C92.6366 18.5813 92.6367 18.6391 92.6366 18.6969C92.6339 19.5302 92.6339 19.5302 92.9534 20.2831C92.9826 20.33 92.9826 20.33 92.9826 20.3916C92.9997 20.3992 93.0167 20.4069 93.0343 20.4147C93.1053 20.4532 93.1053 20.4532 93.1704 20.509C93.5451 20.7954 94.0333 20.8611 94.4853 20.9461C94.4686 21.2398 94.4293 21.5261 94.3789 21.8158C94.3714 21.8593 94.364 21.9029 94.3566 21.9464C94.3411 22.0367 94.3255 22.127 94.3099 22.2173C94.2897 22.3332 94.2699 22.4491 94.2501 22.565C94.2349 22.6545 94.2195 22.744 94.2041 22.8334C94.1967 22.8762 94.1893 22.919 94.182 22.9618C94.1719 23.0211 94.1616 23.0805 94.1512 23.1398C94.1454 23.1735 94.1396 23.2073 94.1336 23.2421C94.1173 23.3179 94.1173 23.3179 94.0866 23.3487C93.2393 23.3827 92.2832 23.2441 91.5106 22.8867C91.4779 22.8717 91.4452 22.8568 91.4115 22.8414C90.7771 22.5377 90.2578 22.034 90.0114 21.3653C89.7513 20.5916 89.7268 19.7868 89.7282 18.9779C89.7282 18.9181 89.7281 18.8583 89.7281 18.7985C89.728 18.6357 89.7282 18.473 89.7283 18.3102C89.7284 18.1341 89.7284 17.958 89.7284 17.7819C89.7284 17.4773 89.7285 17.1727 89.7286 16.8681C89.7289 16.4277 89.729 15.9873 89.729 15.5469C89.7291 14.8322 89.7293 14.1176 89.7296 13.403C89.7298 12.709 89.7301 12.0151 89.7302 11.3212C89.7302 11.2891 89.7302 11.2891 89.7302 11.2563C89.7302 11.0412 89.7303 10.8261 89.7303 10.6109C89.7306 8.80919 89.7312 7.00744 89.7319 5.20569C89.8987 5.17636 90.0656 5.14702 90.2325 5.11769C90.2891 5.10774 90.3456 5.0978 90.4022 5.08785C91.3528 4.92074 91.3528 4.92074 91.6551 4.86852C91.7152 4.85811 91.7752 4.84763 91.8353 4.83709C91.9258 4.82121 92.0163 4.80557 92.1068 4.78997C92.1333 4.78526 92.1599 4.78055 92.1873 4.77569C92.2246 4.76933 92.2246 4.76933 92.2627 4.76285C92.2841 4.75912 92.3056 4.75539 92.3276 4.75155C92.4234 4.74108 92.5183 4.74319 92.6146 4.74365Z" fill="#FDFDFD"/>
<path d="M25.3003 12.3828C25.6902 15.2711 25.0488 18.2912 23.2648 20.7227C23.2079 20.7976 23.1502 20.8719 23.0923 20.9461C23.07 20.9751 23.0476 21.004 23.0246 21.0339C22.8813 21.2173 22.728 21.3906 22.571 21.5621C22.4278 21.5135 22.3157 21.4351 22.1934 21.3484C22.1495 21.3177 22.1055 21.2869 22.0616 21.2561C22.0393 21.2404 22.0169 21.2247 21.9939 21.2085C21.9301 21.1639 21.8661 21.1198 21.8019 21.0759C21.5634 20.9128 21.3287 20.7455 21.0968 20.5731C21.0106 20.5091 20.9238 20.446 20.8366 20.3834C20.5796 20.1989 20.3279 20.0119 20.0869 19.8064C20.0542 19.7788 20.0215 19.7513 19.9887 19.7238C19.8064 19.5704 19.6273 19.4142 19.4512 19.2536C19.3864 19.1946 19.3209 19.1364 19.2551 19.0786C19.2354 19.0614 19.2158 19.0441 19.1956 19.0263C19.1553 18.9913 19.1148 18.9565 19.0741 18.9221C18.9482 18.8146 18.8379 18.7029 18.7318 18.5757C18.6524 18.4856 18.5636 18.4062 18.474 18.3265C18.4309 18.2662 18.4309 18.2662 18.4313 18.1958C18.4717 18.0843 18.5302 17.9881 18.5938 17.8889C18.6073 17.8675 18.6209 17.8461 18.6348 17.8241C18.7937 17.5755 18.9636 17.3347 19.1363 17.0957C19.1487 17.0784 19.1612 17.0611 19.174 17.0432C19.3292 16.8282 19.4951 16.6243 19.6672 16.4229C19.7427 16.3344 19.8152 16.2436 19.8876 16.1523C20.0114 15.9991 20.1459 15.8621 20.2869 15.7252C20.3647 15.6492 20.3647 15.6492 20.4304 15.5611C20.4486 15.5389 20.4668 15.5168 20.4856 15.4939C20.5058 15.4939 20.5261 15.4939 20.5469 15.4939C20.5533 15.4772 20.5596 15.4605 20.5661 15.4433C20.6246 15.3426 20.7066 15.2723 20.7923 15.1955C20.8102 15.1792 20.8281 15.1629 20.8465 15.1461C20.8829 15.1131 20.9193 15.0802 20.9558 15.0473C21.0006 15.0068 21.0451 14.9659 21.0896 14.925C21.2712 14.7585 21.4584 14.6003 21.651 14.4466C21.6683 14.4327 21.6856 14.4187 21.7034 14.4043C22.2894 13.9341 22.924 13.5126 23.583 13.1529C23.61 13.1381 23.637 13.1232 23.6648 13.108C24.9934 12.3828 24.9934 12.3828 25.3003 12.3828Z" fill="#F5803B"/>
<path d="M24.2576 9.08691C24.3305 9.15322 24.3705 9.21236 24.4093 9.30278C24.42 9.32767 24.4308 9.35256 24.4418 9.37821C24.4532 9.40533 24.4645 9.43246 24.4761 9.4604C24.4882 9.48905 24.5002 9.5177 24.5126 9.54722C25.147 11.0809 25.147 11.0809 25.147 11.582C25.1234 11.5915 25.0998 11.6011 25.0756 11.611C23.8626 12.1057 22.6598 12.6817 21.6203 13.4918C21.5577 13.538 21.4951 13.5842 21.4324 13.6304C21.2325 13.7814 21.0428 13.9436 20.8536 14.1078C20.8309 14.1275 20.8081 14.1472 20.7847 14.1675C20.5094 14.4027 20.5094 14.4027 20.2504 14.6551C20.2096 14.6931 20.2096 14.6931 20.1482 14.6931C20.1482 14.7134 20.1482 14.7337 20.1482 14.7547C20.128 14.7547 20.1078 14.7547 20.0869 14.7547C20.0793 14.7725 20.0717 14.7903 20.0639 14.8086C20.02 14.888 19.9709 14.9414 19.9029 15.0011C19.8827 15.0011 19.8624 15.0011 19.8416 15.0011C19.8338 15.0191 19.826 15.037 19.818 15.0555C19.7762 15.1318 19.7299 15.1799 19.6672 15.2398C19.5443 15.3603 19.4318 15.4862 19.3202 15.6172C19.2938 15.6475 19.2673 15.6778 19.2401 15.7091C18.8083 16.206 18.4268 16.7319 18.0629 17.2805C18.045 17.3075 18.0271 17.3344 18.0086 17.3622C17.9653 17.4274 17.9221 17.4926 17.8789 17.5578C17.7834 17.5164 17.7318 17.476 17.671 17.3916C17.6555 17.3701 17.64 17.3487 17.624 17.3266C17.5993 17.2914 17.5993 17.2914 17.5741 17.2555C17.5479 17.2185 17.5479 17.2185 17.5212 17.1808C16.6819 15.9804 15.5175 14.0886 15.5175 12.5677C15.5458 12.5593 15.5741 12.551 15.6032 12.5424C17.9604 11.847 20.3594 11.0759 22.5509 9.94459C22.6657 9.88567 22.7822 9.83078 22.8987 9.77557C23.3579 9.55785 23.8079 9.32337 24.2576 9.08691Z" fill="#F4743A"/>
<path d="M14.8428 13.4302C14.8631 13.4302 14.8833 13.4302 14.9042 13.4302C14.9103 13.451 14.9165 13.4719 14.9228 13.4934C15.1362 14.214 15.3958 14.9005 15.7015 15.5864C15.7118 15.6097 15.722 15.633 15.7326 15.6571C15.9997 16.2623 16.3368 16.8306 16.7135 17.373C16.7335 17.4019 16.7335 17.4019 16.7539 17.4315C16.9107 17.6585 17.0749 17.8784 17.2478 18.0933C17.3833 18.2629 17.3833 18.2629 17.4189 18.3587C17.3806 18.4467 17.3402 18.5244 17.2924 18.607C16.743 19.6066 16.3314 20.7233 16.0907 21.8394C16.0695 21.9318 16.0695 21.9318 16.0389 21.9934C15.9984 21.9924 15.9984 21.9924 15.9572 21.9913C15.1957 21.9807 14.4684 22.0618 13.7265 22.2239C13.6468 22.2399 13.6468 22.2399 13.5855 22.2399C13.577 22.2208 13.5686 22.2018 13.5599 22.1823C13.0342 21.0045 12.3961 19.8869 11.5461 18.9118C11.4543 18.8027 11.3697 18.6893 11.2855 18.5743C11.4893 18.2955 11.6934 18.0169 11.9007 17.7407C12.1637 17.3898 12.4178 17.0323 12.6714 16.6745C12.742 16.5749 12.8132 16.4757 12.8849 16.3768C13.0667 16.126 13.244 15.8735 13.4139 15.6144C13.5052 15.4756 13.599 15.3385 13.6928 15.2014C13.9778 14.7837 14.2543 14.3618 14.5241 13.9341C14.5495 13.894 14.5495 13.894 14.5754 13.8531C14.6129 13.7933 14.65 13.7332 14.6868 13.6729C14.7059 13.6419 14.725 13.6109 14.7447 13.5789C14.7621 13.5504 14.7794 13.522 14.7972 13.4927C14.8123 13.472 14.8273 13.4514 14.8428 13.4302Z" fill="#F57B3B"/>
<path d="M11.7148 7.48511C11.7413 7.49186 11.7679 7.49861 11.7952 7.50556C11.9049 7.53331 12.0147 7.56082 12.1245 7.58815C12.1801 7.60199 12.2356 7.61588 12.2911 7.62981C13.0132 7.8105 13.7353 7.95384 14.4749 8.03956C14.5057 8.13237 14.5061 8.17132 14.4954 8.26572C14.4926 8.29293 14.4898 8.32015 14.4869 8.34819C14.4822 8.39274 14.4822 8.39274 14.4774 8.4382C14.4372 8.85926 14.4335 9.27829 14.4346 9.701C14.4346 9.75852 14.4346 9.75852 14.4347 9.8172C14.4353 10.3778 14.4556 10.9285 14.525 11.4848C14.544 11.6502 14.5555 11.8162 14.5669 11.9824C14.3825 12.047 14.198 12.1012 14.0081 12.1471C13.9813 12.1536 13.9545 12.1602 13.9269 12.1669C13.8387 12.1884 13.7505 12.2096 13.6622 12.2307C13.6314 12.2381 13.6007 12.2455 13.569 12.2531C12.152 12.5917 10.7203 12.8555 9.28062 13.0759C9.25469 13.0799 9.22877 13.0839 9.20205 13.088C9.129 13.0993 9.05592 13.1102 8.98282 13.1211C8.96173 13.1244 8.94065 13.1276 8.91893 13.131C8.77581 13.1518 8.63893 13.1555 8.49478 13.1529C8.49757 13.136 8.50035 13.1191 8.50322 13.1017C8.64435 12.2076 8.64879 11.2791 8.47537 10.3898C8.46411 10.319 8.46411 10.319 8.46411 10.1958C8.54021 10.1427 8.61286 10.0989 8.69411 10.0552C9.51854 9.58996 10.2713 8.97702 10.9481 8.31679C10.9802 8.28559 10.9802 8.28559 11.0129 8.25376C11.2631 8.00942 11.5029 7.76424 11.7148 7.48511Z" fill="#F57B3B"/>
<path d="M7.08412 16.7568C7.85721 16.9441 8.62199 17.405 9.26148 17.8657C9.28721 17.8841 9.28721 17.8841 9.31346 17.9027C9.61901 18.1213 9.91998 18.3648 10.1815 18.6358C10.1346 18.783 10.0521 18.883 9.95533 18.9997C9.82287 19.1625 9.69449 19.3273 9.57007 19.4964C9.42839 19.6882 9.28099 19.8744 9.13021 20.0591C9.02749 20.1851 8.92672 20.3122 8.82831 20.4417C8.80384 20.4738 8.77937 20.506 8.75416 20.5391C8.73575 20.5633 8.73575 20.5633 8.71698 20.588C8.52572 20.8387 8.33059 21.0854 8.12626 21.3254C8.03842 21.4286 7.95271 21.5332 7.86805 21.6391C7.73372 21.805 7.5901 21.961 7.44482 22.1172C7.38083 22.1861 7.31905 22.2563 7.25854 22.3283C7.18479 22.4125 7.10907 22.4937 7.03021 22.5731C7.00923 22.5942 6.98825 22.6153 6.96664 22.6371C6.87313 22.7308 6.77942 22.8242 6.68545 22.9175C6.50941 22.7907 6.34939 22.6537 6.19286 22.5035C6.17051 22.4822 6.14816 22.4609 6.12513 22.439C5.4894 21.8304 5.4894 21.8304 5.24409 21.5313C5.22504 21.5088 5.20599 21.4862 5.18635 21.463C5.02587 21.2703 4.87392 21.0711 4.72275 20.871C4.70216 20.844 4.68156 20.817 4.66034 20.7891C4.64109 20.7634 4.62184 20.7378 4.602 20.7113C4.58465 20.6883 4.56729 20.6653 4.54941 20.6416C4.50798 20.5763 4.48583 20.5301 4.47742 20.4532C4.52749 20.3787 4.52749 20.3787 4.60392 20.2934C4.63269 20.2604 4.66136 20.2273 4.68993 20.1941C4.7053 20.1764 4.72067 20.1586 4.7365 20.1402C4.82 20.0408 4.89768 19.937 4.97576 19.8333C5.09756 19.6719 5.22033 19.5114 5.345 19.3522C5.54987 19.0902 5.74546 18.8232 5.93391 18.549C5.98127 18.4801 6.0289 18.4114 6.07654 18.3427C6.43248 17.827 6.76717 17.2975 7.08412 16.7568Z" fill="#F4763A"/>
<path d="M22.479 6.37622C22.6867 6.53387 22.8336 6.73065 22.9896 6.93746C23.0272 6.98727 23.0652 7.03678 23.1032 7.08626C23.402 7.47877 23.6621 7.89681 23.9203 8.31681C23.8551 8.38801 23.7933 8.43289 23.7077 8.47693C23.6834 8.48953 23.6591 8.50214 23.6341 8.51512C23.6077 8.52858 23.5813 8.54204 23.5541 8.5559C23.5264 8.57016 23.4988 8.58442 23.4703 8.59911C23.3795 8.64577 23.2886 8.69212 23.1977 8.73843C23.1667 8.75431 23.1356 8.7702 23.1036 8.78656C20.9347 9.89461 18.6733 10.7833 16.3475 11.5011C16.3055 11.514 16.3055 11.514 16.2628 11.5273C16.165 11.5567 16.0802 11.5819 15.9775 11.5819C16.0289 11.393 16.1252 11.2304 16.219 11.0602C16.2555 10.9932 16.292 10.9261 16.3284 10.859C16.3468 10.8252 16.3652 10.7914 16.3841 10.7565C16.6047 10.3491 16.8145 9.93627 17.0172 9.51962C17.0489 9.45466 17.0811 9.38991 17.1133 9.32517C17.2193 9.10958 17.312 8.89697 17.3849 8.6678C17.5801 8.07279 17.5801 8.07279 17.788 7.95685C18.0125 7.88393 18.2402 7.87065 18.4747 7.86134C18.6316 7.85193 18.779 7.81949 18.9312 7.78161C18.9579 7.77531 18.9847 7.76901 19.0123 7.76252C20.2163 7.47464 21.4181 7.02073 22.479 6.37622Z" fill="#F5793B"/>
<path d="M14.1375 12.9373C14.1476 12.9678 14.1578 12.9982 14.1682 13.0297C14.1256 13.1064 14.0814 13.1768 14.0321 13.2491C14.0008 13.2963 13.9695 13.3435 13.9383 13.3908C13.9125 13.4295 13.9125 13.4295 13.8862 13.4691C13.8055 13.5919 13.7272 13.7162 13.6487 13.8404C13.4542 14.148 13.2557 14.4518 13.0481 14.7506C12.9962 14.8259 12.945 14.9016 12.8939 14.9774C12.6969 15.2696 12.4978 15.5594 12.2906 15.8445C12.1718 16.0083 12.0578 16.175 11.9448 16.3429C11.8027 16.5537 11.6542 16.7579 11.4989 16.9591C11.3339 17.1729 11.1746 17.3907 11.0153 17.6089C10.9223 17.7363 10.8281 17.8628 10.7335 17.989C10.6325 17.9407 10.5635 17.8877 10.4824 17.8099C9.99501 17.3621 9.43548 16.9924 8.86278 16.6644C8.84146 16.6522 8.82014 16.64 8.79818 16.6274C8.38592 16.3938 7.95525 16.2174 7.51343 16.0484C7.53217 15.9354 7.56368 15.8409 7.61118 15.7368C7.62489 15.7064 7.63861 15.6759 7.65274 15.6445C7.66749 15.612 7.68224 15.5794 7.69743 15.5459C7.81746 15.2766 7.93033 15.0061 8.03285 14.7296C8.04366 14.7005 8.05448 14.6713 8.06561 14.6413C8.14147 14.4341 8.21141 14.2251 8.2801 14.0154C8.4982 13.9739 8.71616 13.9384 8.93621 13.9092C8.99765 13.9009 9.05909 13.8926 9.12052 13.8842C9.1525 13.8799 9.18448 13.8756 9.21743 13.8711C10.8734 13.6451 12.5114 13.3234 14.1375 12.9373Z" fill="#F4743A"/>
<path d="M10.7335 19.2827C11.1519 19.4652 11.4994 20.1424 11.7455 20.5148C11.7656 20.5452 11.7656 20.5452 11.7862 20.5762C12.7882 22.0993 12.7882 22.0993 12.7882 22.4862C12.7671 22.495 12.746 22.5039 12.7242 22.5129C11.7376 22.926 10.8522 23.3788 10.032 24.0784C10.0163 24.0917 10.0007 24.105 9.98452 24.1187C9.90086 24.1907 9.82017 24.2647 9.74088 24.3415C9.72352 24.3577 9.70616 24.3739 9.68828 24.3906C9.65517 24.4215 9.62273 24.4532 9.59115 24.4858C9.54562 24.5277 9.54562 24.5277 9.44547 24.5808C9.34454 24.5703 9.26072 24.5314 9.16947 24.4884C9.1319 24.4714 9.1319 24.4714 9.09358 24.4539C9.01199 24.4156 8.93161 24.3754 8.85129 24.3344C8.82195 24.3195 8.79261 24.3046 8.76238 24.2893C8.27347 24.0385 7.81286 23.7525 7.36011 23.4411C7.41677 23.3171 7.49896 23.2343 7.59586 23.1408C7.71917 23.0194 7.83798 22.897 7.94997 22.7649C8.01621 22.6878 8.08492 22.6131 8.15362 22.5382C8.27854 22.4006 8.39691 22.2592 8.51324 22.1143C8.57982 22.0327 8.64793 21.953 8.71691 21.8735C8.9242 21.6342 9.11572 21.3848 9.30605 21.1319C9.37699 21.0383 9.44948 20.9459 9.52214 20.8537C9.73203 20.5866 9.93683 20.3157 10.1421 20.0451C10.3365 19.7887 10.531 19.5328 10.7335 19.2827Z" fill="#F57A3B"/>
<path d="M13.3402 2.49504C13.3258 2.72038 13.2938 2.93039 13.2328 3.14768C13.2248 3.17661 13.2167 3.20554 13.2084 3.23535C12.8606 4.44668 12.2214 5.48247 11.5001 6.49944C11.3149 6.48238 11.1607 6.40566 10.9941 6.32809C10.9639 6.31409 10.9337 6.30008 10.9026 6.28565C10.6643 6.17387 10.4347 6.0553 10.2121 5.91418C10.188 5.89894 10.1638 5.88369 10.139 5.86799C9.36335 5.37397 8.71965 4.79262 8.28009 3.97358C8.8726 3.66735 9.46165 3.3695 10.0894 3.1419C10.1198 3.13085 10.1502 3.11979 10.1816 3.10841C10.9861 2.81962 11.81 2.63463 12.6578 2.53354C12.6907 2.5296 12.7235 2.52566 12.7574 2.52161C12.9525 2.49977 13.1438 2.4901 13.3402 2.49504Z" fill="#F57C3B"/>
<path d="M5.21342 6.56104C5.45798 6.66574 5.66476 6.91101 5.83311 7.11224C5.89785 7.1886 5.96577 7.26152 6.03377 7.33496C6.21104 7.53055 6.37346 7.73617 6.53211 7.94717C6.54524 7.96461 6.55837 7.98204 6.57189 8C6.97658 8.54176 7.32312 9.14259 7.51345 9.79536C6.12276 10.5028 4.48452 10.9943 2.91339 10.9659C3.27385 9.427 4.07358 7.9998 5.05158 6.7722C5.10682 6.70264 5.16081 6.6326 5.21342 6.56104Z" fill="#F4783A"/>
<path d="M7.57477 4.43567C7.66925 4.52613 7.73479 4.63003 7.80478 4.73985C8.54033 5.86551 9.67934 6.60982 10.8868 7.14634C10.7763 7.39012 10.554 7.57796 10.3674 7.76433C10.347 7.78491 10.3266 7.8055 10.3056 7.82672C10.1671 7.96562 10.0232 8.09622 9.8748 8.22445C9.84488 8.25121 9.81495 8.27797 9.78412 8.30555C9.50423 8.55091 9.20244 8.75727 8.89346 8.96372C8.84872 8.9939 8.804 9.0241 8.75929 9.05433C8.29989 9.36416 8.29989 9.36416 8.21878 9.36416C8.20847 9.34001 8.19816 9.31585 8.18754 9.29096C7.88918 8.59617 7.55706 7.98584 7.0841 7.39276C7.05979 7.36211 7.03548 7.33146 7.01043 7.29987C6.94383 7.21714 6.87628 7.13535 6.8081 7.05393C6.7944 7.03756 6.7807 7.02118 6.76659 7.00431C6.45822 6.63663 6.13851 6.28115 5.79608 5.94502C5.92329 5.79119 6.05615 5.65123 6.20242 5.5157C6.22281 5.49674 6.24319 5.47778 6.2642 5.45825C6.41952 5.31489 6.57943 5.18077 6.74676 5.05173C6.79072 5.01704 6.83464 4.9823 6.87853 4.94753C6.92724 4.9091 6.97596 4.87067 7.02468 4.83226C7.0475 4.81419 7.07033 4.79613 7.09384 4.77751C7.24933 4.65564 7.4092 4.5433 7.57477 4.43567Z" fill="#F4753A"/>
<path d="M17.9709 19.0055C18.0672 19.0482 18.1311 19.0978 18.2043 19.1733C18.2249 19.1944 18.2455 19.2155 18.2668 19.2372C18.2881 19.2592 18.3093 19.2812 18.3312 19.3039C18.4915 19.469 18.6549 19.626 18.8296 19.7756C18.8628 19.8045 18.896 19.8334 18.9291 19.8623C19.38 20.2528 19.8396 20.6274 20.3187 20.9827C20.3883 21.0345 20.4574 21.087 20.5264 21.1397C20.9984 21.4977 21.4946 21.8207 21.9883 22.1474C21.9551 22.2475 21.9361 22.2655 21.858 22.3303C21.7621 22.4116 21.6698 22.4954 21.579 22.5823C21.332 22.8173 21.0657 23.0225 20.7923 23.2255C20.7698 23.2422 20.7473 23.2589 20.7242 23.2761C20.5939 23.3727 20.4633 23.4688 20.3323 23.5643C20.269 23.5285 20.2057 23.4926 20.1425 23.4565C20.1228 23.4453 20.1031 23.4341 20.0828 23.4225C19.9617 23.3531 19.8438 23.2803 19.7266 23.2043C18.849 22.6605 17.8721 22.3025 16.8669 22.0858C16.9086 21.8196 16.9738 21.5627 17.049 21.3042C17.0579 21.2732 17.0579 21.2732 17.0671 21.2417C17.2949 20.4617 17.6071 19.73 17.9709 19.0055Z" fill="#F4723A"/>
<path d="M7.69745 10.6271C7.77005 10.8945 7.79414 11.1546 7.79568 11.4313C7.79589 11.4572 7.7961 11.4832 7.79632 11.5099C7.79684 11.5929 7.79704 11.676 7.79712 11.7591C7.79717 11.7873 7.79722 11.8156 7.79727 11.8447C7.79733 12.3358 7.77325 12.8018 7.63611 13.2761C7.60254 13.2791 7.60254 13.2791 7.5683 13.2821C7.32593 13.3035 7.08357 13.3249 6.84121 13.3463C6.7463 13.3547 6.65139 13.3631 6.55648 13.3715C6.06131 13.4152 5.56617 13.4592 5.07122 13.5054C3.81329 13.6227 3.81329 13.6227 3.29289 13.6554C3.25586 13.6578 3.21883 13.6601 3.18067 13.6625C2.94828 13.676 2.71679 13.679 2.48404 13.6766C2.46305 13.1331 2.45179 12.2936 2.69871 11.7976C2.77486 11.7869 2.77486 11.7869 2.87732 11.7824C2.93441 11.7795 2.93441 11.7795 2.99265 11.7766C3.01311 11.7756 3.03358 11.7747 3.05467 11.7737C4.5556 11.7018 6.10387 11.3809 7.45416 10.699C7.54202 10.6548 7.59757 10.6271 7.69745 10.6271Z" fill="#F57C3B"/>
<path d="M16.4376 2.77222C16.6417 2.78774 16.8331 2.83799 17.0298 2.8935C17.0627 2.90274 17.0955 2.91198 17.1294 2.9215C17.5558 3.04499 18.0055 3.18149 18.4002 3.38828C18.289 4.68526 17.6494 6.08749 17.1429 7.26947C16.7641 7.2993 16.388 7.30402 16.0082 7.30219C15.9513 7.30204 15.8945 7.3019 15.8376 7.30177C15.7003 7.30144 15.5629 7.30091 15.4255 7.30027C15.9669 3.24499 15.9669 3.24499 16.4376 2.77222Z" fill="#F4753A"/>
<path d="M14.1988 2.495C14.2638 2.49591 14.3288 2.49915 14.3936 2.5033C14.4136 2.50456 14.4336 2.50583 14.4541 2.50713C14.4968 2.50988 14.5394 2.5127 14.5821 2.51561C14.6456 2.5199 14.7091 2.52387 14.7727 2.52778C15.0537 2.54589 15.3309 2.57727 15.6095 2.61821C15.5649 2.78896 15.5181 2.9585 15.4635 3.12634C15.093 4.26627 14.9196 5.45336 14.7236 6.6329C14.7179 6.66705 14.7122 6.70121 14.7063 6.7364C14.6948 6.80619 14.6836 6.87603 14.6726 6.9459C14.6672 6.97956 14.6618 7.01322 14.6563 7.04789C14.6493 7.09302 14.6493 7.09302 14.6421 7.13906C14.6282 7.20787 14.6282 7.20787 14.5975 7.23867C14.3173 7.23358 14.0395 7.18741 13.7638 7.14048C13.7243 7.13382 13.6848 7.12716 13.6441 7.12029C12.7233 6.96196 12.7233 6.96196 12.2975 6.80743C12.3436 6.70874 12.3991 6.62103 12.4603 6.53104C12.4805 6.50108 12.5007 6.47112 12.5216 6.44026C12.5431 6.40831 12.5647 6.37637 12.5869 6.34346C12.904 5.86926 13.1894 5.38351 13.4322 4.86683C13.442 4.84612 13.4518 4.8254 13.4619 4.80405C13.7935 4.09935 14.0484 3.36055 14.1572 2.58692C14.1682 2.5258 14.1682 2.5258 14.1988 2.495Z" fill="#F57F3B"/>
<path d="M6.25609 16.5104C6.23684 16.6037 6.20644 16.6748 6.15809 16.7566C6.14396 16.7805 6.12983 16.8044 6.11527 16.829C6.09975 16.8548 6.08424 16.8805 6.06825 16.907C6.04391 16.9475 6.04391 16.9475 6.01907 16.9889C5.8239 17.3099 5.61144 17.6188 5.39741 17.9273C5.36541 17.9739 5.33343 18.0205 5.30145 18.067C5.11193 18.3415 4.91183 18.6061 4.70632 18.8686C4.60282 19.0011 4.50252 19.1359 4.40264 19.2711C4.28106 19.4355 4.15672 19.5949 4.01739 19.7447C3.87551 19.6192 3.80871 19.4346 3.72605 19.2673C3.71658 19.2482 3.7071 19.2291 3.69734 19.2094C3.26067 18.3261 2.94151 17.4111 2.72937 16.4488C3.85783 16.1488 5.13219 16.2563 6.25609 16.5104Z" fill="#F4723A"/>
<path d="M19.1669 3.78882C19.3284 3.83579 19.4661 3.90849 19.6116 3.99096C19.636 4.00471 19.6603 4.01845 19.6854 4.03261C19.9067 4.15858 20.1218 4.29231 20.3323 4.43568C20.3525 4.44941 20.3726 4.46314 20.3934 4.47729C20.8327 4.77803 21.2452 5.10632 21.6333 5.4712C21.7015 5.53459 21.771 5.5949 21.8426 5.65433C21.8844 5.6915 21.8844 5.6915 21.927 5.72941C21.927 5.74974 21.927 5.77007 21.927 5.79102C20.7095 6.42331 19.4515 6.91769 18.0936 7.14635C18.1132 7.03136 18.1454 6.9293 18.1881 6.82088C18.2013 6.78678 18.2146 6.75267 18.2282 6.71754C18.2498 6.66202 18.2498 6.66202 18.2718 6.60538C18.6254 5.68538 18.9217 4.74361 19.1669 3.78882Z" fill="#F4733A"/>
<path d="M7.39074 14.1078C7.36754 14.2596 7.31436 14.3981 7.26041 14.541C7.25005 14.5685 7.23969 14.5959 7.22902 14.6242C7.07786 15.0151 6.89563 15.3929 6.71607 15.7712C6.52446 15.7397 6.33314 15.7071 6.14214 15.6721C5.32511 15.5249 4.51196 15.458 3.68194 15.5209C3.6446 15.5237 3.60726 15.5264 3.56878 15.5292C3.33736 15.5469 3.10844 15.5698 2.87909 15.6059C2.78699 15.6177 2.69942 15.6213 2.60668 15.6172C2.54329 15.5535 2.5546 15.4277 2.54534 15.34C2.54268 15.3154 2.54002 15.2908 2.53727 15.2655C2.51098 15.0136 2.49612 14.7613 2.48401 14.5083C2.60043 14.4817 2.71168 14.4715 2.83089 14.4665C2.89094 14.4637 2.89094 14.4637 2.95222 14.4609C2.98486 14.4594 2.98486 14.4594 3.01817 14.4579C3.54686 14.4328 4.07363 14.3898 4.60076 14.3425C4.65722 14.3374 4.65722 14.3374 4.71482 14.3322C4.94752 14.3113 5.18019 14.2901 5.41286 14.2688C5.72801 14.24 6.04318 14.2115 6.35836 14.1831C6.46754 14.1732 6.5767 14.1632 6.68586 14.1532C6.75233 14.1472 6.81879 14.1412 6.88526 14.1351C6.91527 14.1323 6.94528 14.1296 6.97619 14.1267C7.11492 14.1142 7.25128 14.1045 7.39074 14.1078Z" fill="#F5793B"/>
<path d="M13.0949 23.2255C13.196 23.3778 13.2387 23.5546 13.2942 23.7279C13.3008 23.7485 13.3074 23.769 13.3143 23.7901C13.4334 24.1615 13.5371 24.5364 13.6354 24.9139C13.6422 24.9399 13.649 24.966 13.656 24.9928C13.6752 25.0668 13.6943 25.1408 13.7132 25.2148C13.719 25.237 13.7247 25.2593 13.7306 25.2822C13.7696 25.4359 13.7696 25.4359 13.7696 25.5049C12.6092 25.547 11.4358 25.3005 10.3348 24.9504C10.3751 24.8588 10.415 24.8026 10.4922 24.7395C10.5214 24.7156 10.5214 24.7156 10.5511 24.6912C10.5826 24.6661 10.5826 24.6661 10.6147 24.6405C10.6365 24.6229 10.6584 24.6053 10.6809 24.5872C11.0458 24.2969 11.4334 24.0423 11.8375 23.8107C11.8555 23.8004 11.8734 23.79 11.8919 23.7794C12.2764 23.5598 12.6839 23.3882 13.0949 23.2255Z" fill="#F6813B"/>
<path d="M15.3811 22.7926C15.4274 22.7925 15.4274 22.7925 15.4745 22.7924C15.6116 22.7924 15.7485 22.7931 15.8855 22.7943C15.8829 22.8147 15.8803 22.8351 15.8776 22.8561C15.7824 23.6064 15.7419 24.3207 15.8242 25.0737C15.8272 25.1011 15.8302 25.1284 15.8332 25.1565C15.8403 25.2214 15.8476 25.2862 15.8549 25.351C15.6238 25.4083 15.3937 25.4374 15.1572 25.4626C15.1202 25.4668 15.0833 25.4709 15.0452 25.4752C14.7481 25.5076 14.7481 25.5076 14.5975 25.505C14.588 25.466 14.5784 25.427 14.5686 25.3868C14.388 24.6507 14.2046 23.9216 13.9452 23.209C13.9229 23.1332 13.9229 23.1332 13.9229 23.0099C14.2328 22.9093 14.5518 22.868 14.8735 22.8251C14.9035 22.821 14.9335 22.8168 14.9643 22.8125C15.103 22.7965 15.2416 22.7931 15.3811 22.7926Z" fill="#F57F3B"/>
<path d="M16.6829 22.8867C17.6963 22.9886 18.6786 23.5056 19.5349 24.0264C18.9076 24.5387 17.9644 24.8075 17.2042 25.0429C17.1808 25.0502 17.1573 25.0575 17.1331 25.0651C16.8053 25.1661 16.8053 25.1661 16.6522 25.1661C16.4565 24.4452 16.5326 23.6102 16.6829 22.8867Z" fill="#F36939"/>
<path d="M15.392 8.09753C15.4175 8.0976 15.443 8.09767 15.4694 8.09774C15.4982 8.09774 15.5271 8.09775 15.5568 8.09775C15.5882 8.09791 15.6195 8.09807 15.6519 8.09823C15.6838 8.09827 15.7158 8.09832 15.7487 8.09836C15.8512 8.09854 15.9537 8.09892 16.0562 8.09931C16.1255 8.09947 16.1948 8.09961 16.2641 8.09973C16.4343 8.10007 16.6046 8.10059 16.7749 8.10124C16.7156 8.29562 16.6415 8.47598 16.5516 8.65798C16.5328 8.6967 16.5328 8.6967 16.5135 8.7362C16.4731 8.81919 16.4323 8.90205 16.3916 8.9849C16.3635 9.04231 16.3354 9.09972 16.3073 9.15713C16.2525 9.26912 16.1975 9.38105 16.1425 9.49293C16.084 9.61184 16.026 9.73094 15.9681 9.85016C15.8254 10.1427 15.6742 10.4295 15.5157 10.7137C15.4984 10.7447 15.4812 10.7756 15.4635 10.8075C15.4475 10.8359 15.4314 10.8642 15.4149 10.8934C15.3936 10.9312 15.3936 10.9312 15.3718 10.9698C15.3336 11.0275 15.3336 11.0275 15.2722 11.0583C15.2352 10.6561 15.2359 10.2538 15.2359 9.8502C15.2358 9.73491 15.2353 9.61963 15.2347 9.50434C15.2325 8.55633 15.2325 8.55633 15.3029 8.13204C15.3336 8.10124 15.3336 8.10124 15.392 8.09753Z" fill="#F36739"/>
<path d="M71.1294 10.7157C71.1577 10.7158 71.186 10.7159 71.2151 10.716C71.2595 10.716 71.2595 10.716 71.3049 10.716C71.4033 10.716 71.5017 10.7163 71.6001 10.7165C71.6681 10.7166 71.7361 10.7166 71.8041 10.7167C71.9836 10.7168 72.163 10.7171 72.3424 10.7174C72.5254 10.7177 72.7083 10.7179 72.8913 10.718C73.2505 10.7184 73.6097 10.7189 73.969 10.7195C73.9077 10.7811 73.9077 10.7811 73.7907 10.7877C73.739 10.7875 73.6874 10.787 73.6357 10.7862C73.6075 10.786 73.5793 10.7858 73.5503 10.7856C73.489 10.7852 73.4276 10.7846 73.3663 10.7839C73.2693 10.7828 73.1722 10.7822 73.0752 10.7817C72.7992 10.7802 72.5232 10.778 72.2472 10.7752C72.0785 10.7736 71.9098 10.7725 71.7411 10.7718C71.6768 10.7715 71.6125 10.7708 71.5482 10.77C71.4582 10.7688 71.3682 10.7684 71.2782 10.7681C71.2516 10.7676 71.225 10.767 71.1976 10.7665C71.0691 10.7669 71.0101 10.7707 70.8999 10.8436C70.8804 10.8636 70.861 10.8837 70.8409 10.9043C70.912 10.7187 70.9269 10.716 71.1294 10.7157Z" fill="#DADADC"/>
</svg>
