<svg xmlns="http://www.w3.org/2000/svg" width="136" height="28" fill="none" xmlns:v="https://vecta.io/nano"><path d="M42.862 21.809H37.32V6.602h5.542c4.905-.066 8.061 3.169 8.021 7.61.04 4.428-3.116 7.663-8.021 7.597zm0-12.595h-2.638v9.97h2.638c3.275 0 5.118-1.856 5.118-4.985s-1.843-4.985-5.117-4.985zm18.773-3.315c.994 0 1.75.742 1.75 1.67 0 .968-.742 1.67-1.75 1.67s-1.75-.703-1.75-1.67c-.013-.928.729-1.67 1.75-1.67zm1.392 15.909H60.23V10.725h2.797v11.083zm7.822-3.393l2.811-7.689h2.97l-4.415 11.083h-2.797l-4.441-11.083h3.036l2.837 7.689zm9.015-1.18c.345 1.591 1.631 2.453 3.341 2.453 1.22 0 2.333-.53 2.89-1.379l2.161 1.366c-.968 1.458-2.903 2.426-5.051 2.426-3.566 0-6.085-2.519-6.085-5.833s2.453-5.833 5.727-5.833c3.301 0 5.727 2.294 5.727 5.568l-.04 1.233h-8.67zm6.019-1.975c-.146-1.485-1.299-2.479-3.01-2.479-1.485 0-2.678.901-3.009 2.479h6.019zm31.659-4.534v11.083h-2.824v-1.564c-.743 1.22-2.055 1.856-3.606 1.856-3.089 0-5.396-2.559-5.396-5.833-.04-3.235 2.333-5.9 5.396-5.833 1.551 0 2.863.623 3.606 1.83v-1.551h2.824v.013zm-5.98 2.161a3.04 3.04 0 0 0-2.293.968c-.583.636-.862 1.445-.862 2.413 0 1.922 1.273 3.381 3.155 3.381 1.83 0 3.156-1.339 3.156-3.381s-1.313-3.381-3.156-3.381zm9.811-6.988c.994 0 1.75.742 1.75 1.67 0 .968-.742 1.67-1.75 1.67s-1.75-.703-1.75-1.67c0-.928.743-1.67 1.75-1.67zm1.405 15.909h-2.797V10.725h2.797v11.083zM58.121 10.54c-.292-.066-.61-.106-.928-.106-2.89 0-4.653 1.869-4.653 5.117v6.271h2.824v-5.913c0-1.896.862-2.864 2.492-2.864l.278.013V10.54h-.013zm46.349 0c-.292-.066-.61-.106-.928-.106-2.891 0-4.654 1.869-4.654 5.117v6.271h2.811v-5.913c0-1.896.862-2.864 2.492-2.864l.279.013V10.54zm20.549 5.011v6.271h2.824v-6.059c0-3.818 5.104-3.818 5.104 0v6.059h2.824v-6.271c0-6.973-10.752-7.027-10.752 0zm-28.331 3.62c-.53.292-1.114.424-1.724.424-1.153 0-1.75-.742-1.75-2.148v-4.282H96.9v-2.453h-3.686V7.769h-2.797v2.943 2.453 4.309c0 3.049 1.445 4.614 4.189 4.614a6.27 6.27 0 0 0 2.095-.371v-2.546h-.013z" fill="#fff"/><path d="M28.013 14c0 7.729-6.271 14-14 14s-14-6.271-14-14h28z" fill="#5c45ff"/><path d="M28.013 14h-14l9.903-9.903c2.519 2.532 4.097 6.032 4.097 9.903z" fill="#b567f9"/><path d="M23.903 4.097C21.371 1.564 17.871 0 14 0 6.271 0 0 6.271 0 14h14l9.903-9.903z" fill="#45c1ff"/><path d="M14.013 0l-9.89 23.903L14.013 14l9.877 9.917L14.013 0z" fill="#fff"/></svg>