<svg width="110" height="28" viewBox="0 0 110 28" fill="none" xmlns="http://www.w3.org/2000/svg">
<g clip-path="url(#clip0_1077_176)">
<path d="M106.33 5.35967H102.461V17.4615C102.461 19.0995 102.885 20.3152 103.76 21.0817C104.608 21.875 105.854 22.2717 107.47 22.2717H109.856V18.9408H107.999C107.443 18.9408 107.018 18.7822 106.727 18.4917C106.462 18.1755 106.329 17.752 106.329 17.171V12.1508H109.855V8.84683H106.329L106.33 5.35967ZM100.792 8.848V12.2033H99.0152C98.1141 12.2033 97.5583 12.5463 97.0282 13.1017C96.6034 13.5777 96.2594 14.3698 96.2594 15.295V22.2717H92.3883V8.84567H96.2582V10.4323C96.5765 10.0088 96.9474 9.66583 97.3441 9.42783C97.9538 9.03117 98.6431 8.84567 99.4119 8.84567L100.792 8.848ZM66.4154 22.2693L61.2197 8.84567H65.5413L68.5089 17.4078L71.4778 8.84567H75.6121L70.4164 22.2693H66.4154ZM54.0638 22.6392C52.7391 22.6392 51.5467 22.3487 50.4596 21.714C49.3984 21.0913 48.5137 20.2097 47.8886 19.152C47.2532 18.0682 46.9349 16.8793 46.9349 15.5318C46.9349 14.5542 47.1198 13.629 47.465 12.7832C47.8135 11.9354 48.337 11.1703 49.0015 10.5373C49.6431 9.88237 50.4093 9.3616 51.2553 9.0055C52.1471 8.64542 53.1018 8.46577 54.0638 8.477C55.3897 8.477 56.609 8.79433 57.6681 9.429C58.7359 10.0409 59.63 10.9138 60.266 11.9653C60.9026 13.0223 61.2209 14.2116 61.2209 15.533C61.2209 16.5363 61.0348 17.4883 60.6638 18.333C60.2988 19.18 59.7771 19.951 59.1262 20.6057C58.475 21.2541 57.7003 21.7662 56.8478 22.1118C55.9628 22.4658 55.0174 22.6441 54.0638 22.6392ZM54.0638 19.0995C54.567 19.0995 54.9918 18.9945 55.4154 18.8358C55.8133 18.6503 56.1585 18.3867 56.4768 18.0962C56.7939 17.752 57.0596 17.3822 57.2187 16.9598C57.3771 16.5367 57.4563 16.0611 57.4563 15.533C57.4563 14.8715 57.324 14.2637 57.0327 13.7363C56.7458 13.2117 56.3135 12.7804 55.7876 12.4938C55.2787 12.1779 54.6902 12.0128 54.0907 12.0178C53.5876 12.0178 53.137 12.0972 52.7122 12.2827C52.3172 12.4639 51.9581 12.7144 51.652 13.0223C51.3344 13.3552 51.0907 13.7512 50.937 14.1843C50.7772 14.6161 50.6964 15.0728 50.6983 15.533C50.6983 16.219 50.8305 16.828 51.1219 17.3822C51.4145 17.9107 51.8123 18.333 52.3413 18.6247C52.8445 18.9408 53.4284 19.0995 54.0638 19.0995ZM35.8027 5.35967H39.8574V18.4123H46.0596V22.2705H35.8027V5.35967ZM82.266 22.6403C81.0209 22.6403 79.8811 22.3498 78.8735 21.742C77.8688 21.1319 77.0455 20.2656 76.4886 19.2325C75.9047 18.1755 75.6133 16.9855 75.6133 15.6392C75.6133 14.581 75.7724 13.6302 76.0907 12.7575C76.4159 11.9213 76.8918 11.1514 77.495 10.486C78.082 9.83448 78.8061 9.32019 79.6154 8.97983C80.4112 8.63567 81.2853 8.47817 82.2133 8.47817C83.009 8.47817 83.7229 8.61 84.4133 8.87483C85.1014 9.1385 85.7122 9.534 86.2412 10.01V8.82H89.8454V22.2717H86.2412V21.1085C85.7122 21.5901 85.1022 21.9748 84.439 22.2448C83.7457 22.5107 83.0088 22.6441 82.266 22.6403ZM82.7692 19.0213C83.4327 19.0213 84.0154 18.8627 84.4929 18.5722C85.023 18.2817 85.4197 17.885 85.738 17.3833C86.0563 16.8548 86.2154 16.247 86.2154 15.5342C86.2154 14.8727 86.0563 14.2917 85.738 13.7632C85.442 13.2522 85.0114 12.8318 84.4929 12.5475C84.0154 12.2313 83.4327 12.0727 82.7692 12.0727C82.2929 12.0727 81.8423 12.1777 81.4175 12.3363C80.9939 12.5218 80.6218 12.7587 80.3316 13.076C80.001 13.394 79.747 13.7825 79.5885 14.2123C79.4053 14.6471 79.3152 15.1152 79.324 15.5867C79.324 16.2202 79.4832 16.8023 79.7746 17.3308C80.0929 17.8593 80.4907 18.2817 80.9939 18.5722C81.524 18.8638 82.1337 19.0213 82.7692 19.0213ZM14.0426 0C21.7976 0 28.0851 6.2685 28.0851 14C28.0851 21.7315 21.7976 28 14.0426 28C6.28755 28 0 21.7315 0 14C0 6.2685 6.28755 0 14.0426 0ZM11.3312 20.937H16.6978V19.061H13.4259V12.3258H11.3312V20.937ZM19.9521 8.76167C19.4341 8.76197 18.9213 8.86401 18.4429 9.06195C17.9645 9.25989 17.5298 9.54986 17.1638 9.91529C16.7978 10.2807 16.5076 10.7144 16.3098 11.1917C16.112 11.669 16.0104 12.1804 16.0109 12.6968C16.0104 13.2132 16.112 13.7247 16.3098 14.202C16.5076 14.6792 16.7978 15.1129 17.1638 15.4784C17.5298 15.8438 17.9645 16.1338 18.4429 16.3317C18.9213 16.5297 19.4341 16.6317 19.9521 16.632C22.1287 16.632 23.8946 14.8703 23.8946 12.6968C23.895 12.1802 23.7934 11.6686 23.5954 11.1912C23.3974 10.7138 23.107 10.2799 22.7408 9.91446C22.3745 9.549 21.9396 9.25908 21.4609 9.06128C20.9822 8.86348 20.4703 8.76167 19.9521 8.76167ZM18.5467 11.2933C18.7311 11.1088 18.9502 10.9624 19.1915 10.8625C19.4328 10.7626 19.6915 10.7112 19.9527 10.7112C20.214 10.7112 20.4727 10.7626 20.7139 10.8625C20.9552 10.9624 21.1743 11.1088 21.3587 11.2933C22.1357 12.0703 22.1357 13.3245 21.3587 14.1015C21.1743 14.2859 20.9551 14.4322 20.7138 14.532C20.4726 14.6318 20.2139 14.6832 19.9527 14.6832C19.6915 14.6832 19.4328 14.6318 19.1916 14.532C18.9503 14.4322 18.7312 14.2859 18.5467 14.1015C18.1738 13.729 17.9644 13.2243 17.9644 12.698C17.9644 12.1717 18.1738 11.6658 18.5467 11.2933ZM4.62936 14.3313H9.34532V12.138H4.62936V14.3313Z" fill="white"/>
</g>
<defs>
<clipPath id="clip0_1077_176">
<rect width="110" height="28" fill="white"/>
</clipPath>
</defs>
</svg>
