<svg width="127" height="20" viewBox="0 0 127 20" fill="none" xmlns="http://www.w3.org/2000/svg">
<path d="M35.4977 0.639906L35.4274 3.55533L35.4118 4.07761L35.1543 3.62548C34.5247 2.51076 33.6558 1.64549 32.5684 1.04006C31.5044 0.437228 30.3025 0.130615 28.9939 0.130615C27.3446 0.130615 25.8305 0.574945 24.4985 1.44281C23.1614 2.31848 22.0765 3.51375 21.2727 4.99744C20.4974 6.47856 20.102 8.1935 20.102 10.0903C20.102 11.9872 20.4714 13.6736 21.2024 15.1573C21.9308 16.6124 22.9532 17.7816 24.2384 18.6313C25.5443 19.4524 27.0454 19.8707 28.6947 19.8707C31.6267 19.8707 33.7989 18.6963 35.1569 16.3759L35.4118 15.9394L35.4274 16.4461L35.4977 19.3459H39.7147V0.639906H35.4977ZM34.0539 14.3102C33.0367 15.4275 31.6995 15.9913 30.0788 15.9913C28.458 15.9913 27.1104 15.4275 26.0673 14.3128C25.0397 13.1851 24.5401 11.7793 24.5401 10.0176C24.5401 8.25587 25.0552 6.80594 26.0673 5.72241C27.1078 4.60768 28.458 4.04123 30.0788 4.04123C31.6995 4.04123 33.0367 4.60768 34.0539 5.72241C35.0658 6.80856 35.5784 8.25325 35.5784 10.0176C35.5784 11.7819 35.0658 13.2006 34.0539 14.3102Z" fill="white"/>
<path d="M54.3535 0.703881L53.9711 4.83017C53.24 4.57293 52.4882 4.43781 51.7364 4.43781C50.2197 4.43781 49.0334 5.00166 48.2088 6.10599C47.3918 7.17394 46.9809 8.71481 46.9809 10.687V19.3423H42.5505V0.646719H46.7961L46.8299 4.2871L46.8378 5.08481L47.1109 4.33387C47.574 3.07104 48.2608 2.08364 49.1635 1.40546C50.0584 0.706481 51.112 0.3479 52.2983 0.3479C52.6885 0.3479 53.084 0.386877 53.4716 0.457034C53.8332 0.521994 54.1272 0.605144 54.3561 0.703881H54.3535Z" fill="white"/>
<path d="M74.897 0.654297L67.5527 19.3447H62.8521L55.5053 0.654297H60.482L65.2274 14.7949L65.295 14.9976L65.3626 14.7949L70.2221 0.654297H74.897Z" fill="white"/>
<path d="M90.0475 0.637306L89.9642 3.55533L89.9536 4.07761L89.6958 3.62548C89.0638 2.51076 88.1953 1.64549 87.1102 1.04006C86.0458 0.437228 84.8444 0.130615 83.536 0.130615C81.884 0.130615 80.3722 0.574945 79.04 1.44281C77.7034 2.31848 76.6159 3.51375 75.8143 4.99744C75.0365 6.47856 74.6411 8.1935 74.6411 10.0903C74.6411 11.9872 75.0134 13.6761 75.7417 15.1573C76.4701 16.6124 77.4951 17.7816 78.7803 18.6313C80.0863 19.4524 81.5843 19.8707 83.2363 19.8707C86.166 19.8707 88.3404 18.6963 89.6933 16.3759L89.9511 15.9394L89.9611 16.4461L90.0368 19.3459H94.2512L94.2593 0.6425H90.045L90.0475 0.637306ZM88.5876 14.3076C87.5733 15.4249 86.2361 15.9888 84.6129 15.9888C82.9891 15.9888 81.6444 15.4249 80.6013 14.3102C79.5738 13.1824 79.0769 11.7767 79.0769 10.015C79.0769 8.25325 79.5894 6.80337 80.6013 5.71981C81.6419 4.60509 82.9922 4.03863 84.6129 4.03863C86.2336 4.03863 87.5733 4.60509 88.5876 5.71981C89.6001 6.80594 90.1125 8.25069 90.1125 10.015C90.1125 11.7793 89.6001 13.1981 88.5876 14.3076Z" fill="white"/>
<path d="M126.258 8.03637V19.3421H121.846V8.89644C121.846 5.65882 120.579 4.01662 118.079 4.01662C116.747 4.01662 115.69 4.48694 114.941 5.41197C114.226 6.30581 113.865 7.59206 113.865 9.23425V19.3447H109.486V8.86006C109.486 5.64583 108.232 4.01662 105.758 4.01662C104.423 4.01662 103.367 4.48694 102.621 5.41197C101.879 6.30325 101.507 7.58944 101.507 9.23425V19.3447H97.129V0.641281H101.362L101.395 3.38001L101.403 3.98804L101.668 3.44238C102.176 2.40561 102.935 1.58451 103.926 1.00506C104.923 0.423016 106.088 0.129395 107.399 0.129395C110.209 0.129395 112.147 1.36624 113.164 3.80615L113.294 4.11536L113.43 3.81135C113.94 2.67324 114.749 1.76639 115.839 1.11419C116.929 0.456795 118.172 0.129395 119.536 0.129395C121.698 0.129395 123.368 0.815375 124.505 2.16655C125.667 3.49954 126.258 5.47693 126.258 8.03637Z" fill="white"/>
<path d="M18.749 13.7716C18.749 16.0062 17.711 17.6848 15.6637 18.7554C13.6995 19.7843 11.2957 20 9.62298 20C6.38151 20 3.91786 19.3816 2.30233 18.1603C0.803866 17.0274 0.031218 15.3852 0.0026015 13.2805V13.2156L0 13.0856H4.59946L4.60466 13.2103V13.2701C4.70352 15.4814 6.52975 16.7 9.75301 16.7C11.0746 16.7 14.1443 16.4532 14.1443 14.1639C14.1443 12.3165 11.6391 11.9683 8.74106 11.5604C4.8518 11.0172 0.444857 10.3989 0.444857 5.94257C0.444857 2.16708 3.50682 0 8.84249 0C14.5502 0 17.7578 2.10212 18.1246 6.08029L18.1299 6.15045L18.1429 6.29337H13.5356L13.5252 6.17383L13.52 6.11667C13.3951 4.7551 12.149 3.29999 9.02458 3.29999C6.36067 3.29999 4.89603 4.13668 4.89603 5.65675C4.89603 7.34831 7.318 7.64456 10.125 7.99012C12.0424 8.224 14.2146 8.49163 15.8718 9.27375C17.8073 10.1884 18.749 11.6617 18.749 13.7716Z" fill="white"/>
</svg>
