<svg xmlns="http://www.w3.org/2000/svg" fill="none" viewBox="0 0 96 96" id="Aws-Sns--Streamline-Svg-Logos" height="24" width="24">
  <desc>
    Aws Sns Streamline Icon: https://streamlinehq.com
  </desc>
  <path fill="url(#a)" d="M95 1H1v94h94V1Z"></path>
  <path fill="#ffffff" d="M20.9749 45.6502c1.296 0 2.35 1.054 2.35 2.35s-1.054 2.35-2.35 2.35-2.35-1.054-2.35-2.35 1.054-2.35 2.35-2.35Zm28.2 30.55c-13.731 0-25.5104-10.0275-27.972-23.5235 2.0809-.1011 3.7987-1.5522 4.304-3.5015h7.218v-2.35h-7.218c-.5053-1.9482-2.2219-3.3993-4.3029-3.5015 2.4558-13.2893 14.4713-23.5235 27.9709-23.5235 5.0678 0 10.3776 1.9058 15.7791 5.6647l1.3418-1.9294c-5.8021-4.0373-11.5631-6.0853-17.1209-6.0853-14.9577 0-28.2599 11.5914-30.476 26.4622-1.4382.806-2.424 2.3253-2.424 4.0878 0 1.7625.9858 3.2818 2.424 4.0866 2.2408 15.1141 15.2668 26.4634 30.476 26.4634 6.3532 0 12.8569-2.1655 18.3124-6.0971l-1.3748-1.9058c-5.0583 3.646-11.0732 5.6529-16.9376 5.6529ZM36.3686 43.8195c2.1784.5323 4.9044.6557 6.9313.6557 1.9294 0 4.492-.1116 6.6141-.5805L44.5983 54.525c-.0811.1621-.1234.3431-.1234.5252v5.2323c-.9412.6004-2.5462 1.5968-3.525 1.8012v-7.0335c0-.1551-.0305-.309-.0905-.4524l-4.4908-10.7783Zm6.9313-4.0443c4.7294 0 7.2545.7097 8.0382 1.175-.7837.4653-3.3088 1.175-8.0382 1.175s-7.2544-.7097-8.0382-1.175c.7838-.4653 3.3088-1.175 8.0382-1.175Zm-3.525 24.675h1.175c.0505 0 .1011-.0035.1504-.0094 1.4382-.1868 3.2677-1.2984 4.8692-2.3253l.309-.1974c.3396-.2162.5464-.5911.5464-.9929v-5.5977l6.5318-13.0613c.322-.3748.5182-.8061.5182-1.316 0-3.0668-6.6258-3.525-10.575-3.525-3.9492 0-10.575.4582-10.575 3.525 0 .43.141.8037.376 1.1362l5.499 13.1988v7.99c0 .6486.5252 1.175 1.175 1.175Zm34.075-1.175c1.296 0 2.35 1.054 2.35 2.35s-1.054 2.35-2.35 2.35-2.35-1.054-2.35-2.35 1.054-2.35 2.35-2.35Zm0-35.25c1.296 0 2.35 1.054 2.35 2.35s-1.054 2.35-2.35 2.35-2.35-1.054-2.35-2.35 1.054-2.35 2.35-2.35Zm2.35 17.625c1.296 0 2.35 1.054 2.35 2.35s-1.054 2.35-2.35 2.35-2.35-1.054-2.35-2.35 1.054-2.35 2.35-2.35Zm-11.75 3.525h7.218c.5241 2.021 2.3489 3.525 4.532 3.525 2.5921 0 4.7-2.108 4.7-4.7 0-2.5921-2.1079-4.7-4.7-4.7-2.1831 0-4.0079 1.504-4.532 3.525h-7.218v-15.275h4.868c.5241 2.021 2.3488 3.525 4.532 3.525 2.592 0 4.7-2.108 4.7-4.7 0-2.5921-2.108-4.7-4.7-4.7-2.1832 0-4.0079 1.504-4.532 3.525h-6.043c-.6498 0-1.175.5264-1.175 1.175v16.45h-8.225v2.35h8.225v16.45c0 .6486.5252 1.175 1.175 1.175h6.043c.5241 2.021 2.3488 3.525 4.532 3.525 2.592 0 4.7-2.108 4.7-4.7 0-2.5921-2.108-4.7-4.7-4.7-2.1832 0-4.0079 1.504-4.532 3.525h-4.868v-15.275Z"></path>
  <defs>
    <linearGradient id="a" x1="1" x2="9401" y1="9401" y2="1" gradientUnits="userSpaceOnUse">
      <stop stop-color="#b0084d"></stop>
      <stop offset="1" stop-color="#ff4f8b"></stop>
    </linearGradient>
  </defs>
</svg>