<svg xmlns="http://www.w3.org/2000/svg" xmlns:xlink="http://www.w3.org/1999/xlink" viewBox="0 0 86 81" fill="#fff" fill-rule="evenodd" stroke="#000" stroke-linecap="round" stroke-linejoin="round"><use xlink:href="#A" x=".5" y=".5"/><symbol id="A" overflow="visible"><path d="M79.773 0H4.546C2.045 0 0 2.319 0 4.87v53.565c0 2.55 2.045 4.87 4.546 4.87h25.682c2.727 9.971-.909 11.362-17.273 11.362V80h20.682 15.227 19.545v-5.334c-16.364 0-17.955-1.391-15.227-11.362h26.591c2.5 0 5.227-2.319 5.227-4.87V4.87C85 2.319 82.273 0 79.773 0zm-1.364 6.493V56.58H6.364V6.493h72.045 0zm-23.685 15.81l-13.182-7.652-13.182 7.652v.231l13.182 7.652 13.182-7.884h0zM42.96 32.395v15.304l13.182-7.652V24.743L42.96 32.395zm-2.71 0l-13.182-7.652v15.304l13.182 7.652V32.395z" fill="#0078d7" stroke="none"/></symbol></svg>