<svg width="269" height="308" viewBox="0 0 269 308" fill="none" xmlns="http://www.w3.org/2000/svg">
<path d="M229.823 30.0207C225.434 81.5767 198.822 129.217 157.692 159.147C145.305 168.161 130.524 175.865 114.442 174.072C98.361 172.278 82.034 157.314 84.4881 142.01C86.9806 126.461 107.835 120.035 122.992 127.222C138.149 134.409 147.264 150.748 150.583 166.619C157.58 200.083 142.162 234.838 114.081 252.058C86.6942 268.853 48.9198 268.807 18.0674 253.336" stroke="white" stroke-opacity="0.1" stroke-width="2" stroke-miterlimit="10" stroke-linecap="round" stroke-dasharray="10 10"/>
<path d="M27.3146 267.551C27.5077 267.84 27.4109 268.139 27.2071 268.259C26.978 268.394 26.5994 268.324 26.3995 268.028L16.2547 252.853C16.1363 252.674 16.1266 252.478 16.1903 252.337C16.2454 252.215 16.3586 252.119 16.5113 252.087L16.579 252.077L34.2167 250.606C34.3302 250.598 34.4402 250.621 34.5401 250.671L34.5437 250.672L34.6129 250.711C34.7665 250.809 34.876 250.968 34.9053 251.139L34.9047 251.14C34.9524 251.417 34.7734 251.653 34.4842 251.677L18.4868 253.011L17.6407 253.081L18.1131 253.787L27.3138 267.551L27.3146 267.551Z" stroke="white" stroke-opacity="0.1"/>
</svg>
