<svg width="206" height="148" viewBox="0 0 206 148" fill="none" xmlns="http://www.w3.org/2000/svg">
<path d="M27.474 5.57372C48.4417 3.68252 51.9097 6.99772 63.7732 19.4117C75.6359 31.8255 84.4926 48.9512 99.5385 55.8886C108.667 60.0977 119.149 60.0507 128.826 62.7004C158.034 70.6984 177.332 106.274 172.439 142.388" stroke="white" stroke-opacity="0.1" stroke-width="2" stroke-miterlimit="10" stroke-linecap="round" stroke-dasharray="10 10"/>
<path d="M166.097 129.892C166.508 129.631 166.982 129.793 167.155 130.252L171.937 142.95L180.248 131.044C180.549 130.613 181.061 130.511 181.391 130.816C181.72 131.121 181.742 131.722 181.446 132.149L172.282 145.277C172.096 145.541 171.819 145.694 171.546 145.677C171.274 145.661 171.044 145.478 170.938 145.195L165.663 131.194C165.602 131.028 165.587 130.85 165.612 130.674C165.658 130.36 165.833 130.06 166.097 129.892Z" fill="black"/>
<path d="M180.909 131.146C180.971 131.134 181.017 131.149 181.055 131.184C181.154 131.276 181.229 131.581 181.037 131.857L171.875 144.984C171.765 145.141 171.637 145.18 171.571 145.176L171.57 145.176C171.521 145.173 171.449 145.142 171.404 145.021L171.403 145.021L166.129 131.022C166.101 130.944 166.09 130.852 166.104 130.751L166.105 130.752C166.133 130.563 166.238 130.398 166.366 130.316L166.366 130.315C166.456 130.258 166.523 130.265 166.56 130.277C166.596 130.29 166.652 130.326 166.689 130.425L166.689 130.426L171.472 143.124L171.807 144.013L172.346 143.242L180.657 131.335C180.743 131.212 180.841 131.16 180.909 131.146Z" stroke="white" stroke-opacity="0.1"/>
</svg>
